# xmcd
#
# Track frame offsets:
#	150
#	12688
#	28036
#	34957
#	42185
#	59832
#	71880
#	92184
#	109617
#	121022
#	144549
#	154001
#	166194
#	185633
#	201788
#	215382
#
# Disc length: 2977 seconds
#
# Revision: 0
# Processed by: cddbd v1.5.1PL0 Copyright (c) Steve Scherf et al.
# Submitted via: audiograbber 1.83.01
#
DISCID=ea0b9f10
DTITLE=nature boy - Coracao
DYEAR=1900
DGENRE=Latin
TTITLE0=Rio Sena
TTITLE1=Corcovado
TTITLE2=Vals Venezolano No2
TTITLE3=Vals Venezolano No3
TTITLE4=Adega Tio Pepe
TTITLE5=Triste
TTITLE6=Donna Fernanda
TTITLE7=Oblivion
TTITLE8=Export Nazionale
TTITLE9=Home
TTITLE10=Plus Ultra
TTITLE11=Nature Boy
TTITLE12=Maria
TTITLE13=Verano Porteno
TTITLE14=Senegal
TTITLE15=Tico Tico
EXTD=
EXTT0=
EXTT1=
EXTT2=
EXTT3=
EXTT4=
EXTT5=
EXTT6=
EXTT7=
EXTT8=
EXTT9=
EXTT10=
EXTT11=
EXTT12=
EXTT13=
EXTT14=
EXTT15=
PLAYORDER=
